<!-- Generated by IcoMoon.io -->
<svg version="1.1" xmlns="http://www.w3.org/2000/svg" width="32" height="32" viewBox="0 0 32 32">
<title>bonfire-sharp-1</title>
<path d="M12.493 21l-0.953-0.351c-0.756-0.344-1.435-0.834-2-1.443-0.871-0.931-1.831-2.544-1.461-4.944 0.325-2.108 2.762-4.638 4.334-6.117 1.703-1.601 4.125-4.116 4.009-6.197l-0.047-0.948h0.949c3.209 0 6.676 2.351 6.676 6.151 0 2.848-1.375 4.851-4.307 6.681-0.5 0.313-1.028 0.604-1.589 0.908-1.914 1.039-4.706 3.114-5.358 5.332l-0.253 0.928zM11.324 7.099c1.238-1.162 2.357-2.215 2.902-3.362-0.115-0.070-0.234-0.134-0.356-0.193-0.742-0.356-1.631-0.521-2.797-0.521h-1.059l0.035 1.031c0.029 0.879-0.379 1.407-0.896 2.076-0.541 0.7-1.153 1.492-1.153 2.684 0 0.639 0.081 1.172 0.262 1.648 0.146-0.221 0.304-0.443 0.476-0.664 0.762-0.983 1.691-1.855 2.586-2.696z"></path>
<path d="M20.646 14.991c-0.582 0.369-1.188 0.696-1.828 1.044-2.041 1.106-3.967 2.152-4.577 4.215l-0.037 0.125c0.9 0.411 1.878 0.624 2.867 0.625 1.854 0 3.591-0.696 4.89-1.96 0.649-0.63 1.165-1.384 1.515-2.218s0.529-1.73 0.524-2.635c-0.005-0.661-0.123-1.316-0.349-1.938-0.709 1.011-1.696 1.911-3.004 2.741zM16.795 22.5h-1.59c-0.058 0-0.114 0.020-0.159 0.057s-0.075 0.088-0.086 0.144l-1.585 8c-0.007 0.036-0.006 0.074 0.003 0.109s0.026 0.069 0.049 0.098c0.023 0.029 0.053 0.052 0.086 0.068s0.070 0.024 0.107 0.024h4.766c0.037 0 0.073-0.008 0.107-0.024s0.063-0.039 0.086-0.068c0.023-0.028 0.040-0.062 0.049-0.098s0.010-0.073 0.003-0.109l-1.588-8c-0.012-0.057-0.043-0.109-0.088-0.145s-0.102-0.056-0.16-0.056zM20.355 22.145l-0.71 0.71c-0.041 0.041-0.066 0.095-0.072 0.152s0.009 0.115 0.041 0.163l3.717 5.576c0.021 0.031 0.048 0.057 0.079 0.076s0.067 0.031 0.104 0.034 0.074-0.001 0.109-0.013c0.035-0.012 0.066-0.032 0.093-0.059l2.569-2.569c0.026-0.026 0.046-0.058 0.059-0.093s0.017-0.072 0.013-0.109-0.015-0.072-0.034-0.104c-0.019-0.032-0.045-0.059-0.076-0.079l-5.576-3.717c-0.048-0.032-0.106-0.047-0.163-0.041s-0.111 0.031-0.152 0.072zM24.25 21c-0.066 0-0.13 0.026-0.177 0.073s-0.073 0.11-0.073 0.177v0.538c0 0.059 0.021 0.116 0.059 0.162s0.091 0.075 0.15 0.085l5.5 0.916c0.036 0.006 0.072 0.004 0.107-0.005s0.068-0.027 0.095-0.050c0.028-0.023 0.050-0.052 0.065-0.085s0.023-0.069 0.023-0.105v-1.455c0-0.066-0.026-0.13-0.073-0.177s-0.11-0.073-0.177-0.073h-5.5zM11.645 22.145l0.71 0.71c0.041 0.041 0.066 0.095 0.072 0.152s-0.009 0.115-0.041 0.163l-3.717 5.576c-0.021 0.031-0.048 0.057-0.079 0.076s-0.067 0.031-0.104 0.034-0.074-0.001-0.109-0.013c-0.035-0.012-0.066-0.032-0.093-0.059l-2.569-2.569c-0.026-0.026-0.046-0.058-0.059-0.093s-0.017-0.072-0.013-0.109 0.015-0.072 0.035-0.104c0.019-0.032 0.045-0.059 0.076-0.079l5.576-3.717c0.048-0.032 0.106-0.047 0.163-0.041s0.111 0.031 0.152 0.072zM7.75 21h-5.5c-0.066 0-0.13 0.026-0.177 0.073s-0.073 0.11-0.073 0.177v1.455c0 0.036 0.008 0.072 0.023 0.105s0.038 0.062 0.065 0.085c0.028 0.024 0.060 0.041 0.095 0.050s0.072 0.012 0.107 0.005l5.5-0.916c0.058-0.010 0.111-0.040 0.15-0.085s0.059-0.103 0.059-0.162v-0.538c0-0.066-0.026-0.13-0.073-0.177s-0.11-0.073-0.177-0.073z"></path>
</svg>
