<!-- Generated by IcoMoon.io -->
<svg version="1.1" xmlns="http://www.w3.org/2000/svg" width="32" height="32" viewBox="0 0 32 32">
<title>google</title>
<path fill="#fff" stroke="#ccc" stroke-linejoin="miter" stroke-linecap="butt" stroke-miterlimit="4" stroke-width="2.1333" d="M30.933 16c0 8.247-6.686 14.933-14.933 14.933s-14.933-6.686-14.933-14.933c0-8.247 6.686-14.933 14.933-14.933s14.933 6.686 14.933 14.933z"></path>
<path fill="#ccc" d="M17.775 15.083c0.061 0.323 0.105 0.646 0.105 1.065 0 3.658-2.453 6.252-6.147 6.252-3.536 0-6.4-2.864-6.4-6.4s2.864-6.4 6.4-6.4c1.729 0 3.169 0.629 4.287 1.676l-1.738 1.668c-0.472-0.454-1.301-0.987-2.55-0.987-2.183 0-3.964 1.807-3.964 4.043s1.781 4.043 3.964 4.043c2.532 0 3.484-1.825 3.632-2.759h-3.632v-2.2h6.042zM23.956 15.298v-1.858h-1.867v1.858h-1.858v1.867h1.858v1.858h1.867v-1.858h1.858v-1.867h-1.858z"></path>
</svg>
