<!-- Generated by IcoMoon.io -->
<svg version="1.1" xmlns="http://www.w3.org/2000/svg" width="32" height="32" viewBox="0 0 32 32">
<title>linkedin</title>
<path fill="#fff" stroke="#ccc" stroke-linejoin="miter" stroke-linecap="butt" stroke-miterlimit="4" stroke-width="2.1333" d="M30.933 16c0 8.247-6.686 14.933-14.933 14.933s-14.933-6.686-14.933-14.933c0-8.247 6.686-14.933 14.933-14.933s14.933 6.686 14.933 14.933z"></path>
<path fill="#ccc" d="M12.465 22.4h-2.654v-8.546h2.654v8.546zM11.137 12.688c-0.849 0-1.537-0.703-1.537-1.551 0-0.408 0.162-0.799 0.45-1.087s0.679-0.45 1.087-0.45c0.408 0 0.799 0.162 1.087 0.45s0.45 0.679 0.45 1.087c0 0.849-0.689 1.551-1.537 1.551zM22.397 22.4h-2.648v-4.16c0-0.991-0.020-2.263-1.38-2.263-1.38 0-1.591 1.077-1.591 2.191v4.232h-2.651v-8.546h2.545v1.166h0.037c0.354-0.671 1.22-1.38 2.511-1.38 2.686 0 3.18 1.769 3.18 4.066v4.694h-0.003z"></path>
</svg>
