<!-- Generated by IcoMoon.io -->
<svg version="1.1" xmlns="http://www.w3.org/2000/svg" width="32" height="32" viewBox="0 0 32 32">
<title>twitter</title>
<path fill="#fff" stroke="#ccc" stroke-linejoin="miter" stroke-linecap="butt" stroke-miterlimit="4" stroke-width="2.1333" d="M30.933 16c0 8.247-6.686 14.933-14.933 14.933s-14.933-6.686-14.933-14.933c0-8.247 6.686-14.933 14.933-14.933s14.933 6.686 14.933 14.933z"></path>
<path fill="#ccc" d="M22.673 12.79c0.010 0.14 0.010 0.28 0.010 0.42 0 4.27-3.25 9.19-9.19 9.19-1.83 0-3.53-0.53-4.96-1.45 0.26 0.030 0.51 0.040 0.78 0.040 1.51 0 2.9-0.51 4.010-1.38-1.42-0.030-2.61-0.96-3.020-2.24 0.2 0.030 0.4 0.050 0.61 0.050 0.29 0 0.58-0.040 0.85-0.11-1.48-0.3-2.59-1.6-2.59-3.17v-0.040c0.43 0.24 0.93 0.39 1.46 0.41-0.87-0.58-1.44-1.57-1.44-2.69 0-0.6 0.16-1.15 0.44-1.63 1.59 1.96 3.98 3.24 6.66 3.38-0.050-0.24-0.080-0.49-0.080-0.74 0-1.78 1.44-3.23 3.23-3.23 0.93 0 1.77 0.39 2.36 1.020 0.73-0.14 1.43-0.41 2.050-0.78-0.24 0.75-0.75 1.38-1.42 1.78 0.65-0.070 1.28-0.25 1.86-0.5-0.44 0.64-0.99 1.21-1.62 1.67z"></path>
</svg>
